<?xml version="1.0" standalone="no"?>
<!DOCTYPE svg PUBLIC "-//W3C//DTD SVG 20010904//EN"
 "http://www.w3.org/TR/2001/REC-SVG-20010904/DTD/svg10.dtd">
<svg version="1.0" xmlns="http://www.w3.org/2000/svg"
 width="456.000000pt" height="456.000000pt" viewBox="0 0 456.000000 456.000000"
 preserveAspectRatio="xMidYMid meet">

<g transform="translate(0.000000,456.000000) scale(0.100000,-0.100000)"
fill="#000000" stroke="none">
<path d="M2060 4550 c-97 -11 -328 -54 -410 -77 -173 -49 -414 -156 -574 -255
-109 -68 -124 -83 -132 -134 -10 -67 31 -140 203 -362 76 -97 107 -121 170
-128 44 -5 58 0 183 63 361 184 747 236 1131 153 137 -29 233 -65 397 -146
144 -72 156 -76 207 -72 69 6 93 23 161 113 l56 75 27 -19 c14 -10 66 -57 115
-102 501 -469 718 -1169 570 -1838 -181 -814 -855 -1419 -1686 -1513 l-108
-12 0 -38 0 -38 48 0 c59 0 271 34 375 61 285 73 556 211 782 401 382 319 619
734 706 1233 29 169 32 443 6 615 -70 460 -282 866 -618 1185 -41 39 -94 86
-117 105 l-44 35 35 45 c19 25 41 59 50 77 19 36 22 111 6 146 -12 27 -178
132 -316 201 -198 98 -440 173 -693 212 -117 18 -415 26 -530 14z m210 -309
c0 -125 1 -130 22 -133 12 -2 23 -9 26 -15 3 -10 -14 -13 -63 -13 -49 0 -66 3
-63 13 3 6 14 13 27 15 21 3 22 7 19 115 -3 108 -4 112 -25 115 -41 6 -27 32
17 32 l40 0 0 -129z m177 62 c-4 -38 -9 -98 -13 -134 l-7 -65 72 -10 c40 -5
71 -13 69 -19 -3 -10 -89 -10 -147 0 l-34 6 7 57 c23 202 29 232 44 232 12 0
14 -11 9 -67z m-427 -80 c14 -117 15 -123 37 -123 34 0 28 -27 -8 -34 -55 -11
-89 -7 -89 9 0 8 9 15 20 15 23 0 23 -6 10 101 -16 122 -18 129 -40 129 -11 0
-20 7 -20 16 0 12 9 14 38 12 l37 -3 15 -122z m780 75 c0 -23 -16 -39 -33 -32
-28 10 -21 44 8 44 14 0 25 -6 25 -12z m-1050 -17 c0 -19 -23 -35 -34 -24 -14
15 -5 43 14 43 13 0 20 -7 20 -19z m1018 -55 c4 -4 -16 -98 -34 -157 -3 -11 3
-18 16 -22 23 -6 27 -27 4 -27 -39 0 -104 23 -104 37 0 11 7 13 24 9 22 -5 25
-1 40 59 20 81 20 82 -4 88 -37 10 -23 30 16 24 20 -3 39 -8 42 -11z m-984
-91 c19 -72 23 -80 44 -77 14 2 22 -2 22 -11 0 -14 -66 -37 -104 -37 -23 0
-20 21 4 27 21 6 21 1 -5 103 -10 38 -15 44 -33 42 -27 -4 -31 24 -4 31 47 13
55 5 76 -78z m-338 -17 c15 -40 31 -77 35 -81 3 -5 20 21 37 57 28 60 54 87
68 73 3 -3 -6 -28 -21 -56 -14 -29 -23 -56 -20 -60 3 -5 30 -19 60 -32 30 -12
55 -26 55 -31 0 -20 -32 -17 -81 7 -50 26 -53 26 -66 9 -7 -10 -10 -27 -7 -38
10 -35 10 -40 -6 -43 -11 -3 -28 30 -62 120 -52 134 -55 147 -34 147 8 0 26
-30 42 -72z m1494 47 c0 -9 10 -12 38 -8 47 6 92 -25 92 -65 0 -38 -51 -162
-67 -162 -18 0 -16 16 6 75 32 85 33 92 16 109 -23 23 -68 20 -92 -6 -11 -13
-28 -44 -38 -70 -17 -45 -45 -66 -45 -33 0 13 54 157 66 177 7 12 24 0 24 -17z
m280 -12 c0 -5 -18 -41 -40 -82 -22 -41 -38 -76 -36 -78 2 -2 35 5 74 16 59
16 73 17 88 6 19 -14 16 -15 -88 -41 -16 -3 -28 -7 -28 -8 0 0 9 -33 20 -71
11 -38 20 -71 20 -73 0 -1 -9 2 -19 8 -20 10 -22 14 -41 88 -10 38 -14 42 -33
36 -12 -4 -23 -10 -25 -14 -1 -4 -9 -16 -17 -26 -10 -14 -17 -16 -25 -8 -9 9
-1 31 31 90 76 143 90 164 104 164 8 0 15 -3 15 -7z m-1887 -48 c20 -42 9 -51
-32 -28 -28 16 -33 17 -58 3 -21 -12 -28 -23 -28 -45 l0 -30 86 -5 c91 -5 113
-15 123 -55 13 -52 -34 -107 -94 -109 -17 -1 -30 -7 -30 -13 0 -7 -6 -13 -13
-13 -14 0 -52 69 -43 78 3 2 21 -3 40 -12 32 -15 39 -15 71 -2 29 12 35 20 35
45 0 42 -26 54 -100 45 -66 -7 -103 8 -115 46 -15 46 40 110 94 110 12 0 21 5
21 10 0 23 28 7 43 -25z"/>
<path d="M2184 3476 c-44 -19 -91 -81 -104 -137 -10 -39 -9 -58 4 -103 14 -47
25 -63 67 -96 53 -42 53 -44 -16 -55 -82 -13 -161 -102 -153 -172 3 -27 7 -29
145 -64 l142 -36 113 29 c208 53 188 44 181 81 -16 88 -84 153 -171 164 -29 3
-52 9 -51 12 0 3 19 20 42 36 50 36 87 104 87 160 -1 75 -57 159 -123 184 -39
15 -125 13 -163 -3z"/>
<path d="M1388 3187 c-230 -65 -260 -389 -46 -498 46 -23 121 -34 170 -25 19
3 61 22 93 41 48 29 60 33 74 23 30 -24 216 -182 269 -230 59 -53 80 -58 108
-27 14 15 16 24 8 37 -6 9 -87 83 -180 164 -122 106 -168 152 -165 165 2 10 4
52 4 93 2 85 -17 133 -75 190 -63 64 -171 91 -260 67z m139 -92 c78 -33 118
-98 111 -181 -12 -147 -190 -215 -302 -116 -27 24 -56 91 -56 130 -1 123 134
214 247 167z"/>
<path d="M3009 3187 c-129 -37 -209 -157 -195 -296 l7 -67 -341 -239 c-188
-131 -354 -254 -369 -272 -47 -57 -64 -144 -40 -212 14 -41 38 -53 70 -37 25
12 25 13 12 100 -10 73 2 85 276 277 37 25 150 105 253 177 l187 131 50 -34
c52 -35 146 -61 180 -50 35 11 31 -12 -7 -45 -20 -18 -131 -99 -247 -179 -175
-122 -211 -151 -213 -173 -3 -28 27 -54 51 -45 7 3 89 58 182 124 94 66 199
140 235 165 69 48 123 116 140 177 5 20 23 50 40 66 64 61 84 195 44 285 -54
118 -190 182 -315 147z m147 -96 c49 -22 80 -60 95 -114 40 -150 -123 -280
-256 -204 -102 58 -124 197 -43 278 61 60 130 74 204 40z"/>
<path d="M1130 2529 c-66 -26 -100 -85 -100 -170 0 -61 1 -63 50 -112 28 -27
50 -51 50 -52 0 -1 -24 -7 -54 -14 -42 -9 -63 -21 -89 -50 -34 -37 -57 -106
-40 -121 12 -10 219 -60 250 -60 29 0 251 54 259 63 9 9 -16 84 -37 111 -26
33 -62 52 -118 61 l-44 7 46 39 c53 46 71 91 65 160 -6 58 -45 115 -94 135
-38 16 -107 17 -144 3z"/>
<path d="M3344 2476 c-45 -20 -86 -78 -91 -130 -7 -61 12 -110 58 -149 21 -19
39 -36 39 -39 0 -3 -19 -8 -42 -11 -71 -10 -130 -68 -132 -132 l-1 -37 120
-30 119 -29 86 20 c160 39 160 39 160 67 0 62 -69 132 -140 141 -22 3 -40 8
-40 11 0 3 18 20 39 39 85 72 80 198 -10 265 -33 25 -124 33 -165 14z"/>
<path d="M2380 2271 c-7 -13 -7 -28 0 -46 27 -70 3 -138 -65 -184 -22 -15
-176 -123 -343 -240 l-303 -212 -32 27 c-49 41 -106 64 -164 64 -92 0 -97 -4
295 267 147 102 159 115 144 148 -7 15 -20 25 -32 25 -24 0 -37 -9 -316 -206
-205 -146 -239 -179 -257 -255 -4 -14 -20 -40 -38 -58 -48 -51 -69 -106 -69
-187 0 -156 106 -263 260 -264 80 0 150 30 197 84 59 66 68 92 68 192 l0 92
140 99 c77 55 228 161 336 236 212 147 252 184 270 249 14 54 5 144 -17 169
-22 25 -60 24 -74 0z m-877 -682 c43 -12 101 -59 123 -100 7 -15 14 -50 14
-77 0 -61 -42 -131 -93 -155 -43 -21 -128 -22 -165 -3 -55 29 -102 101 -102
158 1 72 66 160 128 174 15 3 32 7 37 9 16 6 18 5 58 -6z"/>
<path d="M2482 1868 c-32 -32 -14 -54 163 -204 l175 -149 -6 -66 c-19 -204
160 -346 360 -287 63 19 140 100 160 167 20 68 20 104 0 170 -51 172 -271 238
-419 126 l-45 -35 -169 145 c-93 80 -178 145 -188 145 -11 0 -24 -5 -31 -12z
m689 -301 c101 -68 117 -191 35 -273 -77 -77 -178 -79 -249 -6 -85 87 -67 219
37 283 45 28 133 26 177 -4z"/>
<path d="M2206 1466 c-80 -30 -129 -100 -129 -186 0 -72 30 -131 85 -167 l41
-28 -34 -8 c-80 -20 -119 -40 -143 -72 -32 -42 -56 -123 -39 -133 7 -4 72 -23
146 -42 l133 -34 75 17 c93 21 221 56 226 61 8 8 -17 84 -40 117 -26 40 -97
79 -144 79 -47 0 -47 13 1 47 150 106 89 337 -95 358 -26 3 -60 -1 -83 -9z"/>
</g>
</svg>
